HIERARCHY
ROOT Hips
{
	OFFSET 0.000000 88.474243 0.000000
	CHANNELS 6 Xposition Yposition Zposition Zrotation Yrotation Xrotation 
	JOINT Hips_Spine
	{
		OFFSET 0.000000 0.000000 0.000000
		CHANNELS 3 Zrotation Yrotation Xrotation
		JOINT Spine
		{
			OFFSET 0.005100 8.711998 -0.691000
			CHANNELS 3 Zrotation Yrotation Xrotation
			JOINT Spine1
			{
				OFFSET -0.009200 8.660301 -1.275000
				CHANNELS 3 Zrotation Yrotation Xrotation
				JOINT Spine2
				{
					OFFSET 0.006300 9.852501 -1.857000
					CHANNELS 3 Zrotation Yrotation Xrotation
					JOINT Spine2_Neck
					{
						OFFSET 0.000000 0.000000 0.000000
						CHANNELS 3 Zrotation Yrotation Xrotation
						JOINT Neck
						{
							OFFSET 0.016300 11.420799 -0.263300
							CHANNELS 3 Zrotation Yrotation Xrotation
							End Site #name: Head
							{
								OFFSET -0.019200 9.262405 2.362500
							}
						}
					}
					JOINT Spine2_LeftShoulder
					{
						OFFSET 0.000000 0.000000 0.000000
						CHANNELS 3 Zrotation Yrotation Xrotation
						JOINT LeftShoulder
						{
							OFFSET 5.616900 6.732201 -0.345700
							CHANNELS 3 Zrotation Yrotation Xrotation
							JOINT LeftArm
							{
								OFFSET 10.664888 -0.183372 -2.440700
								CHANNELS 3 Zrotation Yrotation Xrotation
								JOINT LeftForeArm
								{
									OFFSET 27.459126 0.000000 0.000000
									CHANNELS 3 Zrotation Yrotation Xrotation
									End Site #name: LeftHand
									{
										OFFSET 21.306858 0.000000 0.000000
									}
								}
							}
						}
					}
					JOINT Spine2_RightShoulder
					{
						OFFSET 0.000000 0.000000 0.000000
						CHANNELS 3 Zrotation Yrotation Xrotation
						JOINT RightShoulder
						{
							OFFSET -5.580300 6.737503 -0.344400
							CHANNELS 3 Zrotation Yrotation Xrotation
							JOINT RightArm
							{
								OFFSET -10.679335 -0.188484 -2.383900
								CHANNELS 3 Zrotation Yrotation Xrotation
								JOINT RightForeArm
								{
									OFFSET -27.503529 0.000000 0.000000
									CHANNELS 3 Zrotation Yrotation Xrotation
									End Site #name: RightHand
									{
										OFFSET -21.306808 0.000000 0.000000
									}
								}
							}
						}
					}
				}
			}
		}
	}
	JOINT Hips_LeftUpLeg
	{
		OFFSET 0.000000 0.000000 0.000000
		CHANNELS 3 Zrotation Yrotation Xrotation
		JOINT LeftUpLeg
		{
			OFFSET 6.857700 -6.739601 0.312100
			CHANNELS 3 Zrotation Yrotation Xrotation
			JOINT LeftLeg
			{
				OFFSET -0.367590 -34.731552 -4.572400
				CHANNELS 3 Zrotation Yrotation Xrotation
				End Site #name: LeftFoot
				{
					OFFSET 0.367590 -34.656704 -6.067400
				}
			}
		}
	}
	JOINT Hips_RightUpLeg
	{
		OFFSET 0.000000 0.000000 0.000000
		CHANNELS 3 Zrotation Yrotation Xrotation
		JOINT RightUpLeg
		{
			OFFSET -6.876100 -6.733299 0.301000
			CHANNELS 3 Zrotation Yrotation Xrotation
			JOINT RightLeg
			{
				OFFSET 0.347353 -34.795158 -4.515900
				CHANNELS 3 Zrotation Yrotation Xrotation
				End Site #name: RightFoot
				{
					OFFSET -0.347353 -34.589367 -6.070300
				}
			}
		}
	}
}
MOTION
Frames: 7
Frame Time: 0.041667
5.501760 0.838498 1.485723 -4.115119 -9.505693 -1.031514 0.000000 0.000000 0.000000 -0.251158 0.591797 4.296802 -0.840128 1.293801 8.683667 0.000000 0.000000 0.000000 -0.855640 1.237048 8.674575 1.403309 -2.264720 2.823483 -0.803146 1.302073 8.687499 3.061345 0.802498 0.413956 -73.914110 -11.523803 26.629836 -179.386421 -87.255215 179.151515 -0.812835 1.235920 8.545097 -3.979076 -1.977514 1.074983 79.361445 -9.463863 4.549551 -175.502274 82.985430 -175.788504 -0.000000 -0.000000 -0.000000 1.317430 1.095703 -20.327180 -0.950843 0.444244 29.040322 0.000000 0.000000 -0.000000 -7.852037 0.566347 -15.748880 0.279933 -0.714787 18.382906 
5.682736 0.874646 1.522357 -4.060866 -9.701763 -1.048682 0.000000 0.000000 -0.000000 -0.255595 0.602521 4.280948 -0.813505 1.282402 8.624218 0.000000 0.000000 0.000000 -0.835401 1.222408 8.594105 1.125941 -2.519924 2.896491 -0.786012 1.297219 8.602599 3.060731 0.780729 0.418878 -73.952607 -11.128112 26.374004 -179.865579 -87.205364 179.626825 -0.795050 1.223933 8.484857 -3.942053 -1.966018 1.061952 79.561637 -9.581091 4.312370 -175.429041 83.014390 -175.732050 0.000000 -0.000000 -0.000000 1.154857 1.027546 -20.172081 -0.919256 0.432319 28.624523 0.000000 0.000000 -0.000000 -7.980700 0.798143 -15.670151 0.296883 -0.691541 18.032762 
5.854690 0.905628 1.548038 -4.013789 -9.852489 -1.059938 0.000000 0.000000 -0.000000 -0.258132 0.612957 4.265473 -0.788192 1.274758 8.573953 0.000000 0.000000 0.000000 -0.816255 1.208581 8.519224 1.018743 -2.685582 3.031403 -0.770415 1.293651 8.528287 3.067285 0.771144 0.424119 -73.997943 -10.741866 26.146112 179.751742 -87.153826 -179.994005 -0.781136 1.215982 8.436181 -3.914027 -1.938116 1.053975 79.721266 -9.689919 4.124000 -175.237025 83.083388 -175.567898 0.000000 -0.000000 -0.000000 1.005298 0.955334 -20.007464 -0.900842 0.418725 28.240936 0.000000 0.000000 -0.000000 -8.085696 0.987646 -15.577856 0.339655 -0.663301 17.766684 
6.015740 0.930789 1.561766 -3.979774 -9.958657 -1.060086 0.000000 0.000000 -0.000000 -0.260680 0.621126 4.252529 -0.764080 1.271096 8.526748 0.000000 0.000000 0.000000 -0.798475 1.198077 8.448950 0.929070 -2.819193 3.134225 -0.755715 1.292106 8.464233 3.067112 0.767349 0.429086 -74.072580 -10.367969 25.957362 179.383542 -87.147115 -179.629729 -0.768408 1.211135 8.391072 -3.867629 -1.898057 1.042999 79.849436 -9.764163 3.978611 -174.985025 83.142537 -175.350377 0.000000 -0.000000 -0.000000 0.859041 0.886328 -19.843722 -0.890899 0.402262 27.892165 0.000000 0.000000 -0.000000 -8.167161 1.148687 -15.509718 0.351534 -0.650846 17.615562 
6.161910 0.950645 1.563633 -3.959453 -10.053696 -1.043811 -0.000000 0.000000 -0.000000 -0.261959 0.624936 4.243334 -0.742266 1.270337 8.483487 0.000000 0.000000 0.000000 -0.782242 1.193218 8.392482 0.864361 -2.919545 3.208960 -0.742434 1.292636 8.409929 3.071147 0.777593 0.432726 -74.170670 -10.015304 25.785805 178.971960 -87.174045 -179.225252 -0.755789 1.210295 8.351717 -3.809976 -1.854654 1.029457 79.925568 -9.812469 3.887687 -174.792022 83.164366 -175.188540 0.000000 -0.000000 -0.000000 0.722679 0.852734 -19.686420 -0.887443 0.386507 27.613001 0.000000 0.000000 -0.000000 -8.253259 1.259685 -15.457835 0.343168 -0.661080 17.519329 
6.286508 0.966304 1.557224 -3.932783 -10.158980 -1.024184 -0.000000 -0.000000 -0.000000 -0.260419 0.628564 4.232321 -0.722007 1.270133 8.434836 0.000000 0.000000 0.000000 -0.766940 1.190750 8.337541 0.825686 -2.982833 3.261088 -0.729519 1.294249 8.361377 3.077702 0.800239 0.435596 -74.277784 -9.685074 25.632280 178.480693 -87.250875 -178.743220 -0.744579 1.213895 8.309409 -3.754254 -1.819533 1.014237 79.932268 -9.829728 3.838806 -174.663498 83.170346 -175.081078 0.000000 -0.000000 -0.000000 0.589189 0.866069 -19.541143 -0.885480 0.374662 27.388106 0.000000 0.000000 -0.000000 -8.355845 1.320979 -15.418466 0.336288 -0.675904 17.477281 
6.383355 0.977792 1.545720 -3.901907 -10.244228 -0.996994 -0.000000 -0.000000 -0.000000 -0.256182 0.629183 4.215109 -0.704801 1.271394 8.391025 0.000000 0.000000 0.000000 -0.751624 1.193078 8.287106 0.812181 -3.004702 3.274339 -0.716853 1.296423 8.319805 3.095597 0.831673 0.436422 -74.399007 -9.392052 25.472697 178.104474 -87.333263 -178.372250 -0.734548 1.221436 8.269915 -3.706570 -1.791125 0.997008 79.880334 -9.846296 3.822519 -174.614402 83.156113 -175.045688 0.000000 -0.000000 -0.000000 0.453007 0.916706 -19.445570 -0.880394 0.372868 27.246600 0.000000 0.000000 -0.000000 -8.476548 1.339000 -15.394764 0.331998 -0.685044 17.482558 
